<?xml version="1.0" encoding="UTF-8"?>
<svg version="1.1" xmlns="http://www.w3.org/2000/svg" width="196" height="184">
<path d="M0 0 C64.68 0 129.36 0 196 0 C196 60.72 196 121.44 196 184 C131.32 184 66.64 184 0 184 C0 123.28 0 62.56 0 0 Z " fill="#FDFDFD" transform="translate(0,0)"/>
<path d="M0 0 C0.81339844 -0.01933594 1.62679687 -0.03867188 2.46484375 -0.05859375 C10.30485423 1.43867141 15.96188566 9.04062675 21.3125 14.4375 C22.22257813 15.33984375 23.13265625 16.2421875 24.0703125 17.171875 C25.37355469 18.47898437 25.37355469 18.47898437 26.703125 19.8125 C27.49235352 20.60398437 28.28158203 21.39546875 29.09472656 22.2109375 C31.42485477 24.84750937 32.90774698 26.99313852 33.28515625 30.515625 C32.48418793 41.37753692 22.22791832 48.40384768 14.90615845 55.66900635 C13.21257138 57.3496424 11.52229223 59.03354629 9.83276367 60.71826172 C5.63888982 64.89888011 1.43954601 69.0739898 -2.75964355 73.24926758 C-6.31957831 76.78935717 -9.87737821 80.33156722 -13.4324646 83.87652588 C-15.08482532 85.52248106 -16.74020465 87.16535645 -18.39575195 88.80810547 C-23.28036212 93.66912814 -28.08015914 98.55713482 -32.546875 103.81201172 C-34.56546533 106.17152268 -36.64477265 108.34129213 -38.9375 110.4375 C-39.5975 110.4375 -40.2575 110.4375 -40.9375 110.4375 C-41.9275 112.4175 -41.9275 112.4175 -42.9375 114.4375 C-43.5975 114.4375 -44.2575 114.4375 -44.9375 114.4375 C-45.15921875 114.98535156 -45.3809375 115.53320312 -45.609375 116.09765625 C-47.34810845 119.16089547 -49.68569524 121.43942683 -52.1875 123.875 C-52.68040527 124.36218506 -53.17331055 124.84937012 -53.68115234 125.35131836 C-56.22417005 127.84367667 -58.80179135 130.25103247 -61.5625 132.5 C-63.99781981 134.21616905 -63.99781981 134.21616905 -64.9375 136.4375 C-66.75317383 137.21191406 -66.75317383 137.21191406 -69.14453125 137.953125 C-70.03205078 138.23212646 -70.91957031 138.51112793 -71.83398438 138.79858398 C-72.79626953 139.09192627 -73.75855469 139.38526855 -74.75 139.6875 C-75.73162109 139.99179932 -76.71324219 140.29609863 -77.72460938 140.60961914 C-79.77315686 141.24280953 -81.82282448 141.87238612 -83.87353516 142.49853516 C-86.79920467 143.39511882 -89.71837603 144.31036244 -92.63671875 145.23046875 C-94.40339416 145.7794564 -96.17031081 146.32766847 -97.9375 146.875 C-98.75452393 147.1337793 -99.57154785 147.39255859 -100.41333008 147.65917969 C-104.68007576 148.95913062 -108.42566571 149.92747295 -112.9375 149.4375 C-115.375 147.5 -115.375 147.5 -116.9375 144.4375 C-117.04364628 138.12734106 -115.12220109 132.160561 -113.125 126.25 C-112.57899947 124.58650423 -112.03474206 122.92243537 -111.4921875 121.2578125 C-111.09338379 120.03819824 -111.09338379 120.03819824 -110.68652344 118.79394531 C-109.28176357 114.37453781 -108.08961397 109.89816469 -106.89453125 105.41796875 C-104.37537145 97.57258536 -99.88629451 92.96235756 -94.13916016 87.2668457 C-93.23967148 86.36370636 -92.3401828 85.46056702 -91.41343689 84.53005981 C-88.95535451 82.0626034 -86.48800469 79.60461434 -84.01857042 77.14852548 C-81.43095106 74.57225616 -78.85108427 71.98824361 -76.27011108 69.40531921 C-71.93591782 65.07024418 -67.59579515 60.74117694 -63.25195312 56.41577148 C-58.2349403 51.41993113 -53.22681962 46.41531333 -48.22350276 41.40575916 C-43.40303922 36.57959487 -38.57691508 31.75913145 -33.74799728 26.94142723 C-31.69613725 24.89420308 -29.64616333 22.84511751 -27.59767532 20.79451942 C-24.73583176 17.93043715 -21.86570563 15.07479717 -18.99462891 12.2199707 C-18.14769974 11.37056412 -17.30077057 10.52115753 -16.42817688 9.64601135 C-15.64312271 8.86804199 -14.85806854 8.09007263 -14.04922485 7.28852844 C-13.37191629 6.61327275 -12.69460773 5.93801706 -11.99677467 5.24229908 C-8.22338804 1.93521003 -5.06692233 0.00800462 0 0 Z " fill="#232D3F" transform="translate(136.9375,15.5625)"/>
<path d="M0 0 C3.22314687 1.53287586 5.37735598 3.14150688 7.890625 5.6953125 C8.95410156 6.76845703 8.95410156 6.76845703 10.0390625 7.86328125 C10.76867187 8.60964844 11.49828125 9.35601562 12.25 10.125 C12.99507813 10.87910156 13.74015625 11.63320313 14.5078125 12.41015625 C16.3431342 14.26900772 18.1736191 16.13237005 20 18 C18.72113231 20.80387058 17.39618952 22.85248535 15.21591187 25.02459717 C14.64941422 25.59384415 14.08291656 26.16309113 13.49925232 26.74958801 C12.87994339 27.36170639 12.26063446 27.97382477 11.62255859 28.60449219 C10.96877731 29.25856552 10.31499603 29.91263885 9.6414032 30.58653259 C7.48178862 32.74475514 5.3151788 34.89580936 3.1484375 37.046875 C1.64870384 38.54287809 0.14941147 40.03932369 -1.34945679 41.53619385 C-5.29389812 45.47300225 -9.24430894 49.40376734 -13.19598389 53.33331299 C-17.22802153 57.34488498 -21.25439714 61.36213094 -25.28125 65.37890625 C-33.18196213 73.25817445 -41.0889909 81.13107125 -49 89 C-52.79149863 87.73616712 -54.23527938 85.89092755 -57 83 C-58.10800157 81.88665383 -59.21881766 80.77610352 -60.33203125 79.66796875 C-63.5546875 76.4453125 -66.77734375 73.22265625 -70 70 C-69.505 69.01 -69.505 69.01 -69 68 C-68.34 68 -67.68 68 -67 68 C-66.7525 67.38125 -66.505 66.7625 -66.25 66.125 C-64.76259631 63.59641373 -63.56321991 63.28160996 -61 62 C-60.5790657 61.10359047 -60.5790657 61.10359047 -60.14962769 60.18907166 C-58.71227181 57.45212035 -56.95296623 55.98382799 -54.60595703 53.97485352 C-48.58887867 48.68964754 -42.94916027 43.07596583 -37.3046875 37.40234375 C-36.22060871 36.31639418 -35.13630471 35.23066941 -34.05178833 34.14515686 C-31.23189399 31.32148922 -28.41501855 28.49482942 -25.59881592 25.66748047 C-22.71096584 22.76930313 -19.8201951 19.87404205 -16.9296875 16.97851562 C-11.28363701 11.32181962 -5.64078055 5.66195112 0 0 Z " fill="#FBFBFB" transform="translate(116,49)"/>
<path d="M0 0 C3.16018158 1.40794082 5.38967063 3.09662205 7.890625 5.4765625 C8.59960938 6.146875 9.30859375 6.8171875 10.0390625 7.5078125 C10.76867187 8.20648438 11.49828125 8.90515625 12.25 9.625 C12.99507812 10.33140625 13.74015625 11.0378125 14.5078125 11.765625 C16.34255477 13.50627793 18.173073 15.25115223 20 17 C19.20461051 20.76958333 17.91238588 22.54717055 15.1875 25.3125 C14.50042969 26.03050781 13.81335938 26.74851562 13.10546875 27.48828125 C11 29 11 29 9.12524414 28.83300781 C6.39340776 27.76224093 4.94006533 26.27961227 2.890625 24.18359375 C2.13652344 23.41982422 1.38242188 22.65605469 0.60546875 21.86914062 C-0.17183594 21.06669922 -0.94914063 20.26425781 -1.75 19.4375 C-2.54277344 18.63119141 -3.33554688 17.82488281 -4.15234375 16.99414062 C-6.10847046 15.00266222 -8.05725719 13.00452279 -10 11 C-9.05052441 9.88322508 -8.09975103 8.76755346 -7.1484375 7.65234375 C-6.35445557 6.72023071 -6.35445557 6.72023071 -5.54443359 5.76928711 C-3.78334607 3.7518035 -1.93011408 1.85587892 0 0 Z " fill="#F4F5F5" transform="translate(136,29)"/>
<path d="M0 0 C4.52615993 3.67832017 8.39424999 7.41086363 12 12 C9.89748139 12.67184618 7.79292237 13.33730968 5.6875 14 C3.92986328 14.556875 3.92986328 14.556875 2.13671875 15.125 C-1 16 -1 16 -4 16 C-3.47606294 10.13190493 -2.23891142 5.45126259 0 0 Z " fill="#F3F3F5" transform="translate(41,132)"/>
</svg>
