<?xml version="1.0" encoding="UTF-8"?>
<svg version="1.1" xmlns="http://www.w3.org/2000/svg" width="144" height="147">
<path d="M0 0 C47.52 0 95.04 0 144 0 C144 48.51 144 97.02 144 147 C96.48 147 48.96 147 0 147 C0 98.49 0 49.98 0 0 Z " fill="#FAFAFB" transform="translate(0,0)"/>
<path d="M0 0 C47.52 0 95.04 0 144 0 C144 48.51 144 97.02 144 147 C96.48 147 48.96 147 0 147 C0 98.49 0 49.98 0 0 Z M22.9453125 27.21484375 C11.50049793 40.87232247 6.40435714 58.2082464 7.74121094 75.8984375 C9.67843875 91.63018939 16.8875701 104.8875701 28 116 C28.97453125 116.97453125 28.97453125 116.97453125 29.96875 117.96875 C41.18407785 128.44864652 56.10531097 134.42991477 71.375 134.25 C72.21498535 134.24250732 73.0549707 134.23501465 73.92041016 134.22729492 C92.68447622 133.90151725 108.90024054 126.4027788 122 113 C135.24478053 97.69330309 139.269547 80.20947165 138.23388672 60.50244141 C136.65074849 43.56385388 126.47985373 27.79746918 113.6640625 17.0390625 C84.1124506 -4.86164664 47.20317002 1.06616464 22.9453125 27.21484375 Z " fill="#FBFBFC" transform="translate(0,0)"/>
<path d="M0 0 C12.55344563 9.47833802 22.10680769 23.52267838 25.7734375 38.91796875 C28.33634123 58.03584519 25.44246016 77.07960195 13.92285156 92.91796875 C3.4283614 106.08028902 -11.61956566 115.92681102 -28.53881836 117.93408203 C-47.47912277 119.76800731 -64.57611283 116.4093142 -79.57421875 104.078125 C-80.30640625 103.44261719 -81.03859375 102.80710937 -81.79296875 102.15234375 C-82.54578125 101.50652344 -83.29859375 100.86070313 -84.07421875 100.1953125 C-96.17833162 89.02387956 -103.61777856 72.4552994 -104.28100586 55.97558594 C-104.38654422 38.23652523 -98.59964058 22.39948099 -86.79296875 9.15234375 C-86.21160156 8.47816406 -85.63023438 7.80398437 -85.03125 7.109375 C-62.63525046 -17.16469578 -26.2856104 -17.38894226 0 0 Z M-80.79296875 17.15234375 C-90.83178071 29.7312853 -95.17889199 42.94901891 -93.79296875 59.15234375 C-91.5554197 75.33296707 -83.84408101 88.38302996 -70.98828125 98.3203125 C-57.12827793 107.52759516 -42.30542989 110.59657958 -25.93359375 107.3984375 C-22.80300943 106.46146684 -19.811421 105.40135848 -16.79296875 104.15234375 C-16.06078125 103.86359375 -15.32859375 103.57484375 -14.57421875 103.27734375 C-1.60482138 97.51316714 8.06213015 86.24662763 13.20703125 73.21484375 C18.0663599 59.59859993 18.23044409 43.42156792 12.20703125 30.15234375 C10.13316565 26.26641242 7.818253 22.69693838 5.20703125 19.15234375 C4.68367188 18.43304688 4.1603125 17.71375 3.62109375 16.97265625 C-4.88782718 6.30537489 -17.47595684 0.24280492 -30.79296875 -1.84765625 C-50.71517726 -3.33646784 -67.01106288 2.16534278 -80.79296875 17.15234375 Z " fill="#252F41" transform="translate(111.79296875,15.84765625)"/>
<path d="M0 0 C2.03637695 1.46875 2.03637695 1.46875 3.98828125 3.5 C4.69404297 4.221875 5.39980469 4.94375 6.12695312 5.6875 C7.20879883 6.8321875 7.20879883 6.8321875 8.3125 8 C9.42334961 9.1446875 9.42334961 9.1446875 10.55664062 10.3125 C12.38283156 12.19760032 14.19635759 14.09335569 16 16 C19.03999336 14.65302115 21.00266578 13.18835008 23.2421875 10.7421875 C23.83386719 10.11699219 24.42554688 9.49179687 25.03515625 8.84765625 C26.26200422 7.532246 27.48079604 6.20927575 28.69140625 4.87890625 C33.2389577 0.11433499 33.2389577 0.11433499 37.328125 -0.5 C40 0 40 0 41.875 1.125 C43.65426154 4.09043591 43.57729704 5.55203411 43 9 C40.64266477 12.11480419 37.84925825 14.71344626 35 17.375 C34.236875 18.11105469 33.47375 18.84710938 32.6875 19.60546875 C30.80445613 21.41789848 28.90888041 23.21486682 27 25 C28.38700675 28.16577674 29.97842595 30.16025983 32.51171875 32.49609375 C33.18654297 33.13740234 33.86136719 33.77871094 34.55664062 34.43945312 C35.98152243 35.7755247 37.41390292 37.10364227 38.85351562 38.42382812 C39.52447266 39.06642578 40.19542969 39.70902344 40.88671875 40.37109375 C41.81810669 41.2362561 41.81810669 41.2362561 42.76831055 42.11889648 C44 44 44 44 43.80395508 46.60961914 C42.78494877 49.6394068 41.84990551 50.57504725 39 52 C35.07911165 51.62286186 33.12112949 50.61139115 30.37109375 47.83984375 C29.72849609 47.21142578 29.08589844 46.58300781 28.42382812 45.93554688 C27.76833984 45.27619141 27.11285156 44.61683594 26.4375 43.9375 C25.13272779 42.62507517 23.8192439 41.32123832 22.49609375 40.02734375 C21.92044678 39.44718506 21.3447998 38.86702637 20.75170898 38.26928711 C18.82069565 36.60883009 18.82069565 36.60883009 15 37 C13.19176335 38.38650443 13.19176335 38.38650443 11.57421875 40.31640625 C10.94193359 40.99767578 10.30964844 41.67894531 9.65820312 42.38085938 C8.34770162 43.83163259 7.04553212 45.28997722 5.75195312 46.75585938 C0.87829109 51.96529549 0.87829109 51.96529549 -3.85546875 52.15234375 C-7 51 -7 51 -9 48 C-9.43801958 44.89310973 -9.38505568 43.53386792 -7.53125 40.96362305 C-6.8609375 40.31949463 -6.190625 39.67536621 -5.5 39.01171875 C-4.778125 38.30595703 -4.05625 37.60019531 -3.3125 36.87304688 C-2.549375 36.15181641 -1.78625 35.43058594 -1 34.6875 C-0.236875 33.94693359 0.52625 33.20636719 1.3125 32.44335938 C3.19760032 30.61716844 5.09335569 28.80364241 7 27 C5.65079628 23.94282796 4.19057828 22.01472814 1.70703125 19.79296875 C1.07732422 19.20580078 0.44761719 18.61863281 -0.20117188 18.01367188 C-1.52595876 16.79570163 -2.86201971 15.58988205 -4.20898438 14.39648438 C-8.9734289 9.89700381 -8.9734289 9.89700381 -9.11328125 5.17578125 C-7.41944029 0.34387703 -4.86231865 -0.65244874 0 0 Z " fill="#232D3F" transform="translate(56,43)"/>
</svg>
